# xmcd CD database file
#
# Track frame offsets:
#	150
#	29182
#	41275
#	57767
#	73050
#	89905
#	108320
#	122362
#	145115
#	163212
#	182622
#	201237
#	223750
#	240457
#	257432
#	274880
#	299217
#
# Disc length: 4280 seconds
#
# Revision: 3
# Processed by: cddbd v1.5.2PL0 Copyright (c) Steve Scherf et al.
# Submitted via: CDex 1.70beta2
#
DISCID=0d10b611
DTITLE=Bruce Cockburn - Waiting For a Miracle:Singles 1970-1987 (Revolver Version)
DYEAR=1987
DGENRE=Folk
TTITLE0=Mama Just Wants To Barrelhouse All Night Long
TTITLE1=All the Diamonds In the World
TTITLE2=Burn
TTITLE3=Laughter
TTITLE4=Wondering Where the Lions Are
TTITLE5=Facist Architecture
TTITLE6=The Trouble With Normal
TTITLE7=Rumours of Glory
TTITLE8=The Coldest Night of the Year
TTITLE9=You Pay Your Money and Take Your Chance
TTITLE10=Lovers In a Dangerous Time
TTITLE11=If I Had a Rocket Launcher
TTITLE12=Peggy's Kitchen Wall
TTITLE13=People See Through You
TTITLE14=Call It Democracy
TTITLE15=Stolen Land
TTITLE16=Waiting For a Miracle
EXTD=Typos corrected YEAR: 1987
EXTT0=
EXTT1=
EXTT2=
EXTT3=
EXTT4=
EXTT5=
EXTT6=
EXTT7=
EXTT8=
EXTT9=
EXTT10=
EXTT11=
EXTT12=
EXTT13=
EXTT14=
EXTT15=
EXTT16=
PLAYORDER=
